<svg width="79" height="91" viewBox="0 0 79 91" fill="none" xmlns="http://www.w3.org/2000/svg">
<g clip-path="url(#clip0_13_121)">
<path d="M0.56184 43.4642C0.850623 43.9271 1.24164 44.3236 1.70735 44.6257C2.17306 44.9279 2.70213 45.1283 3.2573 45.213C3.81246 45.2977 4.38022 45.2645 4.92058 45.1158C5.46094 44.9671 5.96076 44.7065 6.38483 44.3524L18.238 50.877L17.7963 44.0753L6.608 38.9222C5.94088 38.2779 5.05069 37.8908 4.10609 37.8343C3.1615 37.7779 2.22814 38.0559 1.48287 38.6158C0.737607 39.1756 0.232212 39.9784 0.0624597 40.872C-0.107293 41.7656 0.0703906 42.688 0.56184 43.4642Z" fill="#FFB8B8"/>
<path d="M34.878 69.6017C31.362 74.3248 31.4877 82.2266 32.4687 90.8749H49.0927L49.8155 89.2563L50.7792 90.8749H66.4395C66.4395 90.8749 65.2349 68.908 63.0665 68.2143C60.8981 67.5206 34.878 69.6017 34.878 69.6017Z" fill="#2F2E41"/>
<path d="M49.0927 20.2555C53.7499 20.2555 57.5252 16.6321 57.5252 12.1624C57.5252 7.69273 53.7499 4.06934 49.0927 4.06934C44.4356 4.06934 40.6603 7.69273 40.6603 12.1624C40.6603 16.6321 44.4356 20.2555 49.0927 20.2555Z" fill="#FFB8B8"/>
<path d="M55.1874 22.3552L56.8364 25.3886L68.242 30.2684L65.244 58.1145L63.9821 60.9981L64.6639 63.5022L63.0202 65.3503C64.6701 66.7831 64.8797 68.283 63.9821 69.8345L58.7298 70.9892C58.7298 70.9892 29.5256 73.4816 31.9869 69.1394C34.6761 64.3949 35.3609 50.3831 29.4242 42.8955C24.384 36.5387 28.2535 28.2901 28.2535 28.2901L40.2089 24.8611L44.6062 22.3552L55.1874 22.3552Z" fill="#3F3D56"/>
<path d="M52.8364 0.307313C52.876 0.226846 52.9398 0.159584 53.0195 0.114163C53.0993 0.0687432 53.1914 0.0472384 53.2839 0.052412C49.4234 -0.16922 45.357 0.262627 42.1273 2.30442C41.3449 2.79908 40.6072 3.38909 39.7557 3.74793C39.7155 3.76526 39.6807 3.79227 39.6546 3.82634C39.6285 3.86041 39.612 3.90037 39.6068 3.94236C39.6015 3.98434 39.6077 4.02691 39.6246 4.06594C39.6416 4.10496 39.6688 4.13912 39.7035 4.16509L39.797 4.23547C39.8339 4.26324 39.8622 4.30019 39.8787 4.3423C39.8953 4.38441 39.8995 4.43006 39.8909 4.4743C39.8823 4.51854 39.8612 4.55967 39.8299 4.59321C39.7987 4.62675 39.7584 4.65142 39.7136 4.66455C39.6668 4.67822 39.6251 4.70444 39.5934 4.74011C39.5616 4.77578 39.5412 4.81941 39.5344 4.86587C39.5276 4.91233 39.5348 4.95968 39.5552 5.00234C39.5755 5.045 39.6081 5.08119 39.6492 5.10665L40.3658 5.55121C40.4019 5.5732 40.4317 5.60355 40.4524 5.63945C40.4731 5.67536 40.4841 5.71568 40.4843 5.75672C40.4845 5.79775 40.474 5.83818 40.4537 5.87431C40.4334 5.91043 40.404 5.94108 40.3682 5.96345C40.3075 5.99943 40.2437 6.03046 40.1776 6.05619C40.1365 6.07103 40.1 6.09578 40.0717 6.12807C40.0434 6.16036 40.0243 6.19909 40.0162 6.24054C40.008 6.28199 40.0111 6.32476 40.0252 6.36472C40.0393 6.40468 40.0638 6.44048 40.0965 6.46868C40.4069 6.73384 40.6449 7.06784 40.7899 7.44155C41.0288 8.03765 41.0717 8.68685 41.1121 9.32433C41.3589 8.40451 42.4049 7.86307 43.3929 7.80805C44.3809 7.75303 45.3445 8.0659 46.306 8.29081C48.4003 8.77925 50.5754 8.85956 52.7025 8.52697C51.9802 9.91822 52.5895 11.5777 53.2027 13.0164L55.1874 12.1999C57.9132 10.7232 56.0145 16.97 54.9955 17.8275C57.0762 18.5199 62.5221 10.8357 60.7702 7.92095C59.8588 6.40473 60.5057 4.44916 58.714 3.01114C57.8359 2.12391 56.0826 2.51825 55.1874 1.78087C54.835 1.49064 55.3721 0.71419 54.8879 0.544975C54.727 0.488771 52.863 0.250667 52.8364 0.307313Z" fill="#2F2E41"/>
<path d="M38.553 25.6445C37.0057 32.2376 33.0371 47.6314 29.0107 50.8507C28.7554 51.0822 28.4492 51.2557 28.1148 51.3585C13.9621 54.6675 9.42737 46.2268 9.42737 46.2268C9.42737 46.2268 13.2201 44.4529 13.3163 40.9856L20.9649 43.2633L27.6324 28.8626L28.6136 27.9842L28.6191 27.9789L38.553 25.6445Z" fill="#3F3D56"/>
<path d="M68.7287 86.5277C69.1339 86.1538 69.4488 85.6991 69.6512 85.1958C69.8536 84.6925 69.9386 84.1527 69.9001 83.6144C69.8616 83.0762 69.7006 82.5526 69.4284 82.0805C69.1563 81.6085 68.7796 81.1994 68.3249 80.8822L72.2924 68.3328L65.4849 70.271L62.761 81.891C62.2563 82.6594 62.0629 83.5788 62.2174 84.475C62.3718 85.3711 62.8634 86.1818 63.599 86.7533C64.3346 87.3248 65.2631 87.6175 66.2085 87.5759C67.154 87.5344 68.0506 87.1614 68.7287 86.5277Z" fill="#FFB8B8"/>
<path d="M65.0974 29.5664L68.242 30.2685C68.242 30.2685 81.2395 54.5393 78.1075 59.1639C74.9754 63.7885 71.1384 79.0994 71.1384 79.0994C71.1384 79.0994 65.4634 78.0166 63.295 75.2419L67.2658 57.0829L63.17 41.8216L65.0974 29.5664Z" fill="#3F3D56"/>
<path d="M5.43891 65.6079L5.55183 26.5181C5.55504 25.727 5.88512 24.9693 6.46964 24.4114C7.05417 23.8535 7.8454 23.5409 8.66975 23.5422L39.4292 23.6241C40.2535 23.6272 41.0429 23.944 41.6242 24.505C42.2055 25.066 42.5312 25.8254 42.5299 26.6165L42.4169 65.7063C42.4137 66.4974 42.0836 67.2551 41.4991 67.813C40.9146 68.3709 40.1234 68.6835 39.299 68.6822L8.5396 68.6003C7.71525 68.5972 6.92583 68.2804 6.34454 67.7194C5.76325 67.1584 5.43755 66.3991 5.43891 65.6079Z" fill="#E6E6E6"/>
<path d="M7.83248 53.8073L7.90507 28.6769C7.90807 27.9359 8.21719 27.2264 8.76462 26.7039C9.31204 26.1814 10.0531 25.8887 10.8251 25.8899L37.2602 25.9602C38.0323 25.9631 38.7716 26.2598 39.3161 26.7852C39.8605 27.3106 40.1655 28.0218 40.1643 28.7627L40.0638 63.5473C40.0608 64.2883 39.7516 64.9978 39.2042 65.5203C38.6567 66.0428 37.9157 66.3355 37.1436 66.3343L20.7676 66.2907C17.3287 66.2779 14.0355 64.9563 11.6105 62.6161C9.18555 60.2758 7.82684 57.1079 7.83248 53.8073Z" fill="white"/>
<path d="M34.2312 36.9286H13.6186C13.2906 36.9286 12.976 36.8036 12.7441 36.581C12.5121 36.3584 12.3818 36.0565 12.3818 35.7417C12.3818 35.4269 12.5121 35.1249 12.7441 34.9023C12.976 34.6797 13.2906 34.5547 13.6186 34.5547H34.2312C34.5592 34.5547 34.8738 34.6797 35.1057 34.9023C35.3377 35.1249 35.468 35.4269 35.468 35.7417C35.468 36.0565 35.3377 36.3584 35.1057 36.581C34.8738 36.8036 34.5592 36.9286 34.2312 36.9286Z" fill="#6C63FF"/>
<path d="M18.1534 31.4553H13.6186C13.2906 31.4553 12.976 31.3302 12.7441 31.1076C12.5121 30.885 12.3818 30.5831 12.3818 30.2683C12.3818 29.9535 12.5121 29.6516 12.7441 29.429C12.976 29.2064 13.2906 29.0813 13.6186 29.0813H18.1534C18.4814 29.0813 18.796 29.2064 19.0279 29.429C19.2598 29.6516 19.3901 29.9535 19.3901 30.2683C19.3901 30.5831 19.2598 30.885 19.0279 31.1076C18.796 31.3302 18.4814 31.4553 18.1534 31.4553Z" fill="#6C63FF"/>
<path d="M34.2312 42.402H13.6186C13.2906 42.402 12.976 42.277 12.7441 42.0544C12.5121 41.8318 12.3818 41.5299 12.3818 41.2151C12.3818 40.9003 12.5121 40.5983 12.7441 40.3757C12.976 40.1531 13.2906 40.0281 13.6186 40.0281H34.2312C34.5592 40.0281 34.8738 40.1531 35.1057 40.3757C35.3377 40.5983 35.468 40.9003 35.468 41.2151C35.468 41.5299 35.3377 41.8318 35.1057 42.0544C34.8738 42.277 34.5592 42.402 34.2312 42.402Z" fill="#6C63FF"/>
<path d="M34.2312 47.8752H13.6186C13.2906 47.8752 12.976 47.7501 12.7441 47.5275C12.5121 47.3049 12.3818 47.003 12.3818 46.6882C12.3818 46.3734 12.5121 46.0715 12.7441 45.8489C12.976 45.6263 13.2906 45.5012 13.6186 45.5012H34.2312C34.5592 45.5012 34.8738 45.6263 35.1057 45.8489C35.3377 46.0715 35.468 46.3734 35.468 46.6882C35.468 47.003 35.3377 47.3049 35.1057 47.5275C34.8738 47.7501 34.5592 47.8752 34.2312 47.8752Z" fill="#6C63FF"/>
<path d="M32.5633 62.2973C35.2812 62.2973 37.4844 60.1828 37.4844 57.5743C37.4844 54.9659 35.2812 52.8513 32.5633 52.8513C29.8455 52.8513 27.6423 54.9659 27.6423 57.5743C27.6423 60.1828 29.8455 62.2973 32.5633 62.2973Z" fill="#6C63FF"/>
<path d="M31.892 60.0324C31.807 60.0324 31.7232 60.0134 31.6472 59.9769C31.5712 59.9404 31.5051 59.8875 31.4541 59.8222L30.1116 58.1042C30.0683 58.049 30.0369 57.9862 30.019 57.9193C30.001 57.8524 29.997 57.7828 30.0072 57.7145C30.0173 57.6461 30.0414 57.5803 30.078 57.5209C30.1146 57.4615 30.1631 57.4096 30.2207 57.3682C30.2782 57.3267 30.3437 57.2966 30.4134 57.2795C30.4831 57.2624 30.5557 57.2586 30.6269 57.2684C30.6981 57.2782 30.7666 57.3014 30.8284 57.3367C30.8903 57.3719 30.9443 57.4185 30.9874 57.4738L31.8658 58.5977L34.1216 55.3501C34.1614 55.2924 34.2126 55.2429 34.2724 55.2043C34.3322 55.1657 34.3993 55.1388 34.4699 55.1251C34.5405 55.1114 34.6132 55.1113 34.6839 55.1247C34.7546 55.138 34.8218 55.1646 34.8817 55.203C34.9416 55.2413 34.9931 55.2907 35.0331 55.3481C35.0732 55.4056 35.101 55.4701 35.115 55.5379C35.129 55.6057 35.129 55.6755 35.1148 55.7433C35.1007 55.8111 35.0727 55.8755 35.0326 55.9329L32.3475 59.7984C32.2989 59.8683 32.2336 59.9261 32.157 59.9667C32.0804 60.0074 31.9947 60.0299 31.9072 60.0322C31.9022 60.0323 31.8971 60.0324 31.892 60.0324Z" fill="white"/>
<path d="M22.0697 14.4419C23.3599 14.4419 24.4058 13.4381 24.4058 12.1998C24.4058 10.9616 23.3599 9.95776 22.0697 9.95776C20.7795 9.95776 19.7336 10.9616 19.7336 12.1998C19.7336 13.4381 20.7795 14.4419 22.0697 14.4419Z" fill="#F2F2F2"/>
<path d="M13.5498 78.9346C14.84 78.9346 15.8859 77.9308 15.8859 76.6925C15.8859 75.4543 14.84 74.4504 13.5498 74.4504C12.2597 74.4504 11.2137 75.4543 11.2137 76.6925C11.2137 77.9308 12.2597 78.9346 13.5498 78.9346Z" fill="#F2F2F2"/>
<path d="M67.2801 23.1465C68.5703 23.1465 69.6162 22.1427 69.6162 20.9044C69.6162 19.6662 68.5703 18.6624 67.2801 18.6624C65.9899 18.6624 64.944 19.6662 64.944 20.9044C64.944 22.1427 65.9899 23.1465 67.2801 23.1465Z" fill="#F2F2F2"/>
</g>
<defs>
<clipPath id="clip0_13_121">
<rect width="78.5946" height="90.875" fill="white"/>
</clipPath>
</defs>
</svg>
