<svg width="108" height="94" viewBox="0 0 108 94" fill="none" xmlns="http://www.w3.org/2000/svg">
<g clip-path="url(#clip0_13_144)">
<path d="M20.1453 66.034L19.0397 74.7435L17.4128 64.8497C9.59372 61.8493 0.451463 61.2666 0.451463 61.2666C0.451463 61.2666 -1.56603 80.1629 5.09503 88.0641C11.7561 95.9653 18.779 94.7642 24.5733 89.8794C30.3674 84.9947 32.7388 78.276 26.0777 70.3748C24.5951 68.6161 22.5023 67.1899 20.1453 66.034Z" fill="#F2F2F2"/>
<path d="M17.9772 76.0602L18.3056 76.4497C22.0989 80.9962 24.3132 85.172 24.9119 88.9221C24.9215 88.9766 24.9277 89.0308 24.9373 89.0854L24.6834 89.1246L24.4389 89.1592C23.8367 85.0724 21.2243 80.7803 17.9166 76.8138C17.8113 76.685 17.7043 76.5542 17.5935 76.4266C16.1785 74.7599 14.6508 73.1551 13.1021 71.6506C12.9832 71.5331 12.8608 71.4153 12.7384 71.2975C10.684 69.3222 8.61049 67.5278 6.7585 66.0118C6.62808 65.904 6.49574 65.7979 6.36502 65.6937C3.21978 63.1405 0.770027 61.4358 0.223829 61.0618C0.158026 61.015 0.120749 60.9904 0.11232 60.9843L0.251598 60.7778L0.2519 60.7743L0.393107 60.5662C0.401545 60.5723 0.526965 60.6545 0.753238 60.8134C1.6032 61.403 3.88652 63.0237 6.7177 65.3139C6.84486 65.4178 6.97722 65.524 7.10762 65.6317C8.61184 66.8604 10.2549 68.2656 11.9104 69.7989C12.3268 70.1833 12.7326 70.5669 13.1278 70.9495C13.2521 71.0657 13.3745 71.1835 13.4933 71.301C15.1677 72.9271 16.6624 74.5136 17.9772 76.0602Z" fill="white"/>
<path d="M6.7177 65.3138C6.60316 65.4401 6.48669 65.5679 6.36502 65.6936C6.0351 66.0354 5.68789 66.36 5.32475 66.6662C3.77867 67.9732 1.95907 68.9166 0 69.4269C0.00516686 69.5974 0.0103441 69.7678 0.015209 69.9418C2.08907 69.4204 4.01634 68.4319 5.64984 67.0519C6.03746 66.7249 6.40753 66.3777 6.7585 66.0117C6.87823 65.8876 6.9947 65.7597 7.10762 65.6316C8.04499 64.5797 8.81717 63.3915 9.39776 62.1078C9.22546 62.0716 9.05671 62.0358 8.89151 62.0002C8.33403 63.2058 7.60152 64.3224 6.7177 65.3138Z" fill="white"/>
<path d="M13.1278 70.9493C13.0012 71.0692 12.8715 71.1852 12.7384 71.2974C12.6996 71.3334 12.6571 71.3692 12.6167 71.4033C10.9395 72.8173 8.94537 73.8047 6.80419 74.2814C4.66301 74.7581 2.4383 74.71 0.319733 74.1411C0.338512 74.3199 0.357291 74.4987 0.379627 74.6777C2.55245 75.2287 4.82527 75.2541 7.00984 74.7517C9.19441 74.2493 11.2279 73.2337 12.9417 71.7889C12.9957 71.7434 13.0497 71.6979 13.1021 71.6505C13.2354 71.5348 13.3652 71.4187 13.4933 71.3008C15.463 69.4599 16.8608 67.0906 17.5195 64.4763C17.3619 64.4146 17.2043 64.3528 17.0448 64.2927C16.4147 66.8455 15.0534 69.1589 13.1278 70.9493Z" fill="white"/>
<path d="M17.9772 76.0602C17.852 76.1855 17.7236 76.307 17.5935 76.4266C17.4538 76.5543 17.3124 76.68 17.1678 76.8019C14.912 78.6992 12.1023 79.8148 9.15938 79.9817C6.21648 80.1485 3.29871 79.3576 0.842911 77.7274C0.887815 77.9567 0.931079 78.1841 0.979832 78.4102C3.51151 79.9678 6.46967 80.6881 9.43403 80.4686C12.3984 80.2491 15.2182 79.101 17.4929 77.1875C17.6375 77.0656 17.7805 76.9418 17.9166 76.8138C18.0503 76.6945 18.1787 76.5731 18.3056 76.4496C20.8518 73.9382 22.3485 70.553 22.4926 66.9795C22.3319 66.8709 22.1669 66.7692 22.0004 66.6655C21.932 70.2011 20.4889 73.5709 17.9772 76.0602Z" fill="white"/>
<path d="M61.5326 22.1653V8.12574C61.5326 5.97067 60.6765 3.90386 59.1526 2.37999C57.6288 0.856123 55.562 1.48807e-05 53.4069 1.61053e-10H23.6621C22.595 -6.71789e-06 21.5384 0.210166 20.5525 0.618517C19.5666 1.02687 18.6709 1.6254 17.9163 2.37994C17.1618 3.13449 16.5632 4.03026 16.1549 5.01612C15.7465 6.00198 15.5363 7.05862 15.5363 8.12571V17.4498H15.0137V20.7352H15.5363V24.2396H15.0137V29.2771H15.5363V31.4674H15.0137V36.5049H15.5363V85.1481C15.5363 86.2152 15.7465 87.2718 16.1548 88.2577C16.5632 89.2435 17.1617 90.1393 17.9162 90.8939C18.6708 91.6484 19.5666 92.2469 20.5524 92.6553C21.5383 93.0637 22.5949 93.2738 23.662 93.2738H53.4068C54.4739 93.2739 55.5305 93.0637 56.5164 92.6553C57.5023 92.247 58.398 91.6484 59.1526 90.8939C59.9071 90.1394 60.5057 89.2436 60.9141 88.2577C61.3224 87.2719 61.5326 86.2152 61.5326 85.1481V32.159H62.0451V22.1653H61.5326Z" fill="#3F3D56"/>
<path d="M53.7347 2.11402H49.852C50.0306 2.55178 50.0987 3.02673 50.0505 3.49703C50.0022 3.96733 49.8391 4.41856 49.5754 4.81095C49.3117 5.20334 48.9555 5.52486 48.5383 5.74718C48.121 5.9695 47.6555 6.08581 47.1828 6.08584H30.1423C29.6696 6.08581 29.2041 5.9695 28.7868 5.74718C28.3696 5.52486 28.0134 5.20334 27.7497 4.81095C27.486 4.41856 27.3229 3.96733 27.2746 3.49703C27.2264 3.02672 27.2945 2.55177 27.4731 2.11401H23.8467C22.2373 2.11401 20.6938 2.75334 19.5558 3.89135C18.4178 5.02936 17.7784 6.57283 17.7784 8.18222V85.0916C17.7784 85.8885 17.9354 86.6776 18.2404 87.4138C18.5453 88.15 18.9923 88.819 19.5558 89.3825C20.1193 89.946 20.7882 90.3929 21.5244 90.6979C22.2607 91.0028 23.0498 91.1598 23.8467 91.1598H53.7347C55.3441 91.1598 56.8876 90.5205 58.0256 89.3825C59.1636 88.2445 59.8029 86.701 59.8029 85.0916V8.18222C59.8029 7.38534 59.646 6.59625 59.341 5.86002C59.036 5.12379 58.5891 4.45484 58.0256 3.89135C57.4621 3.32787 56.7931 2.88088 56.0569 2.57593C55.3207 2.27097 54.5316 2.11402 53.7347 2.11402Z" fill="white"/>
<path d="M54.4865 28.8793H23.0949C22.8761 28.879 22.6664 28.792 22.5117 28.6373C22.357 28.4826 22.27 28.2729 22.2698 28.0542V15.3168C22.27 15.0981 22.357 14.8883 22.5117 14.7336C22.6664 14.579 22.8761 14.492 23.0949 14.4917H54.4865C54.7052 14.4919 54.915 14.579 55.0697 14.7336C55.2243 14.8883 55.3114 15.0981 55.3116 15.3168V28.0542C55.3114 28.2729 55.2243 28.4827 55.0697 28.6373C54.915 28.792 54.7052 28.879 54.4865 28.8793Z" fill="#6C63FF"/>
<path d="M51.4974 34.907H26.084C25.8432 34.907 25.6124 34.8114 25.4422 34.6412C25.272 34.471 25.1763 34.2401 25.1763 33.9994C25.1763 33.7587 25.272 33.5278 25.4422 33.3576C25.6124 33.1874 25.8432 33.0918 26.084 33.0918H51.4974C51.7381 33.0918 51.969 33.1874 52.1392 33.3576C52.3094 33.5278 52.4051 33.7587 52.4051 33.9994C52.4051 34.2401 52.3094 34.471 52.1392 34.6412C51.969 34.8114 51.7381 34.907 51.4974 34.907Z" fill="#6C63FF"/>
<path d="M51.4974 39.5276H26.0839C25.8213 39.5276 25.5695 39.4233 25.3838 39.2376C25.1981 39.0519 25.0938 38.8001 25.0938 38.5375C25.0938 38.2749 25.1981 38.0231 25.3838 37.8374C25.5695 37.6517 25.8213 37.5474 26.0839 37.5474H51.4974C51.76 37.5474 52.0119 37.6517 52.1976 37.8374C52.3832 38.0231 52.4876 38.2749 52.4876 38.5375C52.4876 38.8001 52.3832 39.0519 52.1976 39.2376C52.0119 39.4233 51.76 39.5276 51.4974 39.5276Z" fill="#E4E4E4"/>
<path d="M51.4974 44.0657H26.0839C25.8213 44.0657 25.5695 43.9614 25.3838 43.7757C25.1981 43.59 25.0938 43.3382 25.0938 43.0756C25.0938 42.813 25.1981 42.5611 25.3838 42.3755C25.5695 42.1898 25.8213 42.0854 26.0839 42.0854H51.4974C51.76 42.0854 52.0119 42.1898 52.1976 42.3755C52.3832 42.5611 52.4876 42.813 52.4876 43.0756C52.4876 43.3382 52.3832 43.59 52.1976 43.7757C52.0119 43.9614 51.76 44.0657 51.4974 44.0657Z" fill="#E4E4E4"/>
<path d="M54.4865 66.9994H23.0949C22.8761 66.9992 22.6664 66.9121 22.5117 66.7575C22.357 66.6028 22.27 66.393 22.2698 66.1743V53.4369C22.27 53.2182 22.357 53.0085 22.5117 52.8538C22.6664 52.6991 22.8761 52.6121 23.0949 52.6118H54.4865C54.7052 52.6121 54.915 52.6991 55.0697 52.8538C55.2243 53.0084 55.3114 53.2182 55.3116 53.4369V66.1743C55.3114 66.393 55.2243 66.6028 55.0697 66.7575C54.915 66.9121 54.7052 66.9992 54.4865 66.9994Z" fill="#E4E4E4"/>
<path d="M51.4974 73.1097H26.0839C25.8213 73.1097 25.5695 73.0053 25.3838 72.8197C25.1981 72.634 25.0938 72.3821 25.0938 72.1195C25.0938 71.8569 25.1981 71.6051 25.3838 71.4194C25.5695 71.2337 25.8213 71.1294 26.0839 71.1294H51.4974C51.76 71.1294 52.0119 71.2337 52.1976 71.4194C52.3832 71.6051 52.4876 71.8569 52.4876 72.1195C52.4876 72.3821 52.3832 72.634 52.1976 72.8197C52.0119 73.0053 51.76 73.1097 51.4974 73.1097Z" fill="#E4E4E4"/>
<path d="M51.4974 77.6478H26.0839C25.8213 77.6478 25.5695 77.5434 25.3838 77.3577C25.1981 77.1721 25.0938 76.9202 25.0938 76.6576C25.0938 76.395 25.1981 76.1432 25.3838 75.9575C25.5695 75.7718 25.8213 75.6675 26.0839 75.6675H51.4974C51.76 75.6675 52.0119 75.7718 52.1976 75.9575C52.3832 76.1432 52.4876 76.395 52.4876 76.6576C52.4876 76.9202 52.3832 77.1721 52.1976 77.3577C52.0119 77.5434 51.76 77.6478 51.4974 77.6478Z" fill="#E4E4E4"/>
<path d="M51.4974 82.1858H26.0839C25.8213 82.1858 25.5695 82.0815 25.3838 81.8958C25.1981 81.7101 25.0938 81.4583 25.0938 81.1957C25.0938 80.9331 25.1981 80.6813 25.3838 80.4956C25.5695 80.3099 25.8213 80.2056 26.0839 80.2056H51.4974C51.76 80.2056 52.0119 80.3099 52.1976 80.4956C52.3832 80.6813 52.4876 80.9331 52.4876 81.1957C52.4876 81.4583 52.3832 81.7101 52.1976 81.8958C52.0119 82.0815 51.76 82.1858 51.4974 82.1858Z" fill="#E4E4E4"/>
<path d="M80.0201 24.149C79.7008 21.8074 79.3004 19.2933 77.6489 17.6029C77.1248 17.0666 76.4976 16.6419 75.805 16.3545C75.1124 16.0671 74.3687 15.923 73.6189 15.9307C72.8691 15.9385 72.1286 16.098 71.4421 16.3997C70.7556 16.7013 70.1373 17.1389 69.6244 17.686C68.4222 18.9685 67.8913 20.7694 67.8427 22.5266C67.7941 24.2839 68.1855 26.0216 68.6196 27.725C70.9172 27.7709 73.1978 27.3221 75.3066 26.4089C75.8233 26.1566 76.3595 25.9461 76.9099 25.7794C77.467 25.6376 77.8641 25.9944 78.3823 26.2432L78.6668 25.6985C78.8997 26.1319 79.6208 26.0035 79.8823 25.5868C80.1438 25.1701 80.0865 24.6364 80.0201 24.149Z" fill="#2F2E41"/>
<path d="M101.065 88.2883L99.3779 89.4043L94.2703 83.4264L96.7608 81.7793L101.065 88.2883Z" fill="#9E616A"/>
<path d="M102.578 89.6394L97.1364 93.2378L97.0908 93.169C96.7194 92.6073 96.5863 91.9211 96.7208 91.2613C96.8553 90.6014 97.2463 90.022 97.808 89.6505L101.131 87.4526L102.578 89.6394Z" fill="#2F2E41"/>
<path d="M79.2816 91.2767H77.2585L76.296 83.4731L79.282 83.4733L79.2816 91.2767Z" fill="#9E616A"/>
<path d="M79.7976 93.2378L73.2741 93.2376V93.155C73.2741 92.4816 73.5417 91.8358 74.0178 91.3597C74.494 90.8835 75.1398 90.616 75.8132 90.616L79.7977 90.6161L79.7976 93.2378Z" fill="#2F2E41"/>
<path d="M64.8871 37.6494L57.2484 32.1929C57.2821 31.907 57.2319 31.6175 57.1041 31.3597C56.9762 31.1018 56.7762 30.8867 56.5283 30.7404C56.2804 30.5941 55.9953 30.5231 55.7078 30.5359C55.4202 30.5487 55.1426 30.6448 54.9087 30.8125C54.6748 30.9802 54.4946 31.2123 54.3902 31.4805C54.2858 31.7487 54.2615 32.0415 54.3205 32.3232C54.3794 32.6049 54.519 32.8635 54.7221 33.0673C54.9253 33.2712 55.1834 33.4116 55.4649 33.4715C56.4197 34.2732 63.3939 41.2091 64.3924 40.8433C65.4059 40.4719 69.8371 39.7998 69.8371 39.7998L69.9604 35.5925L64.8871 37.6494Z" fill="#9E616A"/>
<path d="M70.8888 47.5774L70.9609 57.1781C70.9609 57.1781 72.614 71.4032 73.2237 73.8063C73.8334 76.2094 76.3082 87.3291 76.3082 87.3291L80.3313 86.6801L77.7405 72.142L78.5236 60.0925L83.0393 72.1686L94.5059 84.1547L97.412 81.8098L87.4313 67.1424L84.3829 55.1269C84.3829 55.1269 84.7621 48.9121 81.3464 46.5188L70.8888 47.5774Z" fill="#2F2E41"/>
<path d="M73.1997 26.4658C75.635 26.4658 77.6092 24.4916 77.6092 22.0563C77.6092 19.6209 75.635 17.6467 73.1997 17.6467C70.7644 17.6467 68.7902 19.6209 68.7902 22.0563C68.7902 24.4916 70.7644 26.4658 73.1997 26.4658Z" fill="#9E616A"/>
<path d="M74.3471 49.1266L72.7082 52.7849L77.464 54.9155L79.103 51.2572L74.3471 49.1266Z" fill="#2F2E41"/>
<path d="M80.2623 30.5405C79.7426 29.5063 79.4901 28.2287 78.3823 27.8934C77.6342 27.667 74.6085 28.0063 73.9267 28.3885C72.7926 29.0242 73.8204 30.2155 73.1513 31.3303C72.4239 32.5421 71.6966 33.754 70.9693 34.9659C70.4693 35.799 69.964 36.644 69.6936 37.5772C69.4233 38.5105 69.4103 39.558 69.8709 40.4136C70.283 41.1794 71.0298 41.7225 71.4444 42.487C71.8755 43.2821 71.1016 46.8322 70.7004 47.6428L70.8929 47.7318C73.5605 47.8883 76.2369 47.7983 78.888 47.4628C79.5459 47.3794 80.2292 47.2706 80.7714 46.8887C81.5701 46.3261 81.8858 45.3052 82.0831 44.3484C83.0328 39.6715 82.3919 34.8114 80.2623 30.5405Z" fill="#E4E4E4"/>
<path d="M71.238 40.5561C72.4326 39.382 73.6333 38.2009 74.6168 36.845C75.6002 35.4891 76.365 33.9371 76.5785 32.2758C76.6698 31.7457 76.6336 31.2015 76.4726 30.6883C76.2894 30.1851 75.8836 29.7386 75.3606 29.6238C74.5236 29.44 73.7627 30.108 73.1654 30.7224C71.4044 32.5342 69.6433 34.3459 67.8823 36.1576C69.004 37.6342 70.1258 39.1108 71.2476 40.5874L71.238 40.5561Z" fill="#E4E4E4"/>
<path d="M84.2589 41.4606C83.8876 40.4471 83.2154 36.0159 83.2154 36.0159L79.0082 35.8926L81.0651 40.9659L75.4521 48.8236C75.4521 48.8236 75.4625 48.8409 75.4814 48.8717C75.1863 48.8243 74.8837 48.8672 74.6134 48.9946C74.343 49.122 74.1174 49.3281 73.9661 49.5858C73.8147 49.8436 73.7447 50.141 73.7652 50.4392C73.7857 50.7374 73.8958 51.0224 74.081 51.257C74.2661 51.4917 74.5178 51.6649 74.8031 51.7541C75.0883 51.8434 75.3939 51.8444 75.6797 51.7571C75.9656 51.6698 76.2184 51.4982 76.4052 51.2649C76.5919 51.0315 76.7039 50.7472 76.7264 50.4492C76.7471 50.461 76.7713 50.4653 76.7947 50.4613C76.8182 50.4572 76.8396 50.4452 76.8551 50.4271C77.4797 49.6433 84.6302 42.4741 84.2589 41.4606Z" fill="#9E616A"/>
<path d="M84.6867 38.662C84.3005 37.0321 83.9115 35.3934 83.2604 33.8501C82.6093 32.3068 81.6773 30.8491 80.3664 29.8065C79.9601 29.454 79.4757 29.2033 78.9533 29.0753C78.4279 28.9717 77.8358 29.0877 77.4669 29.4758C76.8764 30.0968 77.0541 31.0936 77.2706 31.9227C77.9092 34.3672 78.5478 36.8118 79.1863 39.2564C81.0304 39.0609 82.8744 38.8654 84.7184 38.67L84.6867 38.662Z" fill="#E4E4E4"/>
<path d="M78.7123 22.3992C78.5744 21.3325 78.4304 20.2569 78.1066 19.2524C77.7827 18.248 77.2606 17.3072 76.5117 16.7382C75.326 15.8374 73.7908 16.0111 72.4614 16.5293C71.4333 16.9301 70.4297 17.5392 69.7047 18.5184C68.9797 19.4977 68.5725 20.8949 68.8422 22.1753C70.2603 21.7807 71.6784 21.386 73.0964 20.9914L72.9412 21.1206C73.8614 21.6391 74.5603 22.712 74.7691 23.9268C74.979 25.1373 74.7106 26.382 74.0205 27.3985C74.9876 26.9944 75.9547 26.5902 76.9219 26.1861C77.5188 25.9367 78.1577 25.6493 78.5117 25.0095C78.9221 24.2677 78.8268 23.2845 78.7123 22.3992Z" fill="#2F2E41"/>
<path d="M57.893 29.3121L55.0564 33.5693C54.9887 33.6716 54.8966 33.7553 54.7884 33.813C54.6802 33.8706 54.5593 33.9004 54.4367 33.8996C54.2908 33.8996 54.1481 33.8565 54.0267 33.7756C53.9052 33.6947 53.8105 33.5796 53.7543 33.445C53.7344 33.3995 53.7195 33.3521 53.7099 33.3035C53.6715 33.1103 53.7113 32.9097 53.8204 32.7458L56.657 28.4886C56.7111 28.4074 56.7806 28.3377 56.8617 28.2834C56.9427 28.2291 57.0336 28.1913 57.1292 28.1722C57.2248 28.153 57.3233 28.1529 57.419 28.1718C57.5146 28.1907 57.6056 28.2283 57.6868 28.2823C57.7679 28.3364 57.8377 28.4059 57.8919 28.4869C57.9462 28.568 57.984 28.6589 58.0032 28.7545C58.0223 28.8501 58.0224 28.9486 58.0035 29.0442C57.9846 29.1399 57.9471 29.2309 57.893 29.3121Z" fill="#6C63FF"/>
<path d="M55.2852 33.2259L54.711 34.0825L53.6951 34.9781C53.6282 35.0371 53.5437 35.0723 53.4548 35.0783C53.3658 35.0844 53.2773 35.0608 53.2031 35.0114C53.1289 34.9619 53.0731 34.8894 53.0445 34.8049C53.0158 34.7205 53.0158 34.629 53.0445 34.5445L53.4892 33.2428L54.0492 32.4023L55.2852 33.2259Z" fill="#3F3D56"/>
<path d="M58.0184 27.0796L56.5968 28.3326C56.5503 28.3736 56.5138 28.4248 56.4901 28.4821C56.4665 28.5395 56.4564 28.6015 56.4606 28.6634C56.4648 28.7253 56.4831 28.7854 56.5142 28.8391C56.5453 28.8928 56.5884 28.9386 56.64 28.973L56.909 29.1522L56.1312 30.3195C56.1192 30.3376 56.1108 30.3578 56.1066 30.379C56.1024 30.4003 56.1024 30.4222 56.1067 30.4434C56.111 30.4647 56.1194 30.4849 56.1314 30.5029C56.1435 30.5209 56.159 30.5363 56.177 30.5484C56.195 30.5604 56.2153 30.5687 56.2365 30.5729C56.2578 30.5771 56.2797 30.5771 56.3009 30.5728C56.3222 30.5686 56.3424 30.5602 56.3604 30.5481C56.3784 30.5361 56.3938 30.5206 56.4058 30.5025L57.1836 29.3352L57.4526 29.5144C57.5418 29.5738 57.6509 29.5954 57.756 29.5745C57.8611 29.5537 57.9537 29.492 58.0134 29.403C58.0331 29.3734 58.0489 29.3414 58.0602 29.3077L58.6692 27.5133C58.6978 27.4288 58.6978 27.3373 58.6691 27.2529C58.6403 27.1684 58.5845 27.0959 58.5103 27.0464C58.4361 26.997 58.3477 26.9734 58.2587 26.9794C58.1697 26.9854 58.0852 27.0206 58.0184 27.0796Z" fill="#3F3D56"/>
<path d="M107.015 93.5859H0.196484C0.14447 93.5857 0.0946366 93.5649 0.0579105 93.5281C0.0211845 93.4913 0.000564575 93.4414 0.000564575 93.3894C0.000564575 93.3374 0.0211845 93.2875 0.0579105 93.2506C0.0946366 93.2138 0.14447 93.193 0.196484 93.1929H107.015C107.067 93.193 107.116 93.2138 107.153 93.2506C107.19 93.2875 107.211 93.3374 107.211 93.3894C107.211 93.4414 107.19 93.4913 107.153 93.5281C107.116 93.5649 107.067 93.5857 107.015 93.5859Z" fill="#3F3D56"/>
<path d="M39.9046 3.55267H35.449C35.3614 3.55267 35.2775 3.5179 35.2156 3.456C35.1537 3.39411 35.1189 3.31016 35.1189 3.22262C35.1189 3.13509 35.1537 3.05114 35.2156 2.98925C35.2775 2.92735 35.3614 2.89258 35.449 2.89258H39.9046C39.9921 2.89258 40.0761 2.92735 40.138 2.98925C40.1998 3.05114 40.2346 3.13509 40.2346 3.22262C40.2346 3.31016 40.1998 3.39411 40.138 3.456C40.0761 3.5179 39.9921 3.55267 39.9046 3.55267Z" fill="white"/>
<path d="M42.1324 3.55267C42.3147 3.55267 42.4624 3.4049 42.4624 3.22262C42.4624 3.04034 42.3147 2.89258 42.1324 2.89258C41.9501 2.89258 41.8024 3.04034 41.8024 3.22262C41.8024 3.4049 41.9501 3.55267 42.1324 3.55267Z" fill="white"/>
</g>
<defs>
<clipPath id="clip0_13_144">
<rect width="107.211" height="93.7692" fill="white"/>
</clipPath>
</defs>
</svg>
