<svg width="126" height="80" viewBox="0 0 126 80" fill="none" xmlns="http://www.w3.org/2000/svg">
<g clip-path="url(#clip0_13_183)">
<path d="M49.7051 63.2585H0.50662C0.372302 63.2583 0.243527 63.2049 0.148549 63.1099C0.053572 63.015 0.000148952 62.8862 0 62.7519V14.7918C0.000148952 14.6575 0.053572 14.5287 0.148549 14.4337C0.243527 14.3387 0.372302 14.2853 0.50662 14.2852H49.7051C49.8394 14.2853 49.9682 14.3387 50.0632 14.4337C50.1582 14.5287 50.2116 14.6575 50.2117 14.7918V62.7519C50.2116 62.8862 50.1582 63.015 50.0632 63.1099C49.9682 63.2049 49.8394 63.2583 49.7051 63.2585Z" fill="#F0F0F0"/>
<path d="M44.3575 18.676H5.85428C5.71998 18.6762 5.59123 18.7297 5.49627 18.8246C5.4013 18.9196 5.34786 19.0483 5.34766 19.1826V49.017C5.34786 49.1513 5.4013 49.28 5.49627 49.375C5.59123 49.47 5.71998 49.5234 5.85428 49.5236H44.3575C44.4918 49.5234 44.6205 49.47 44.7155 49.375C44.8104 49.28 44.8639 49.1513 44.8641 49.017V19.1826C44.8639 19.0483 44.8104 18.9196 44.7155 18.8246C44.6205 18.7297 44.4918 18.6762 44.3575 18.676Z" fill="white"/>
<path d="M42.1621 55.3778H8.04964C7.97502 55.3777 7.90349 55.3481 7.85072 55.2953C7.79796 55.2425 7.76828 55.171 7.76819 55.0964V53.5202C7.76828 53.4456 7.79796 53.3741 7.85072 53.3213C7.90349 53.2685 7.97502 53.2389 8.04964 53.2388H42.1621C42.2367 53.2389 42.3083 53.2685 42.361 53.3213C42.4138 53.3741 42.4435 53.4456 42.4436 53.5202V55.0964C42.4435 55.171 42.4138 55.2425 42.361 55.2953C42.3083 55.3481 42.2367 55.3777 42.1621 55.3778Z" fill="white"/>
<path d="M30.341 59.2057H8.04964C7.97502 59.2056 7.90349 59.1759 7.85072 59.1232C7.79796 59.0704 7.76828 58.9989 7.76819 58.9243V57.3481C7.76828 57.2735 7.79796 57.202 7.85072 57.1492C7.90349 57.0964 7.97502 57.0667 8.04964 57.0667H30.341C30.4156 57.0667 30.4871 57.0964 30.5399 57.1492C30.5926 57.202 30.6223 57.2735 30.6224 57.3481V58.9243C30.6223 58.9989 30.5926 59.0704 30.5399 59.1232C30.4871 59.1759 30.4156 59.2056 30.341 59.2057Z" fill="white"/>
<path d="M24.1547 38.8923C26.8584 38.8923 29.0502 36.7005 29.0502 33.9968C29.0502 31.2931 26.8584 29.1013 24.1547 29.1013C21.451 29.1013 19.2592 31.2931 19.2592 33.9968C19.2592 36.7005 21.451 38.8923 24.1547 38.8923Z" fill="#FFB8B8"/>
<path d="M31.317 49.5235H20.463L20.8176 41.5436L20.9021 41.4547L22.1202 40.168H25.9964L27.4329 41.5595L27.549 41.672L30.6078 44.6037L31.317 49.5235Z" fill="#6C63FF"/>
<path d="M22.3296 49.5234H14.1178C14.0976 47.7221 14.0863 46.6436 14.0863 46.6436L14.5614 46.3542C14.562 46.3536 14.5628 46.3532 14.5636 46.3531H14.5648L19.7976 43.176L20.8964 41.3916L20.9021 41.4546L21.2252 45.216C21.2252 45.216 21.7588 46.9408 22.3296 49.5234Z" fill="#2F2E41"/>
<path d="M36.1311 49.5234H27.4329C27.5646 44.2703 26.8554 41.3916 27.2202 41.3916L27.4329 41.5594L29.9964 43.5836L33.3751 44.8231H33.3773L35.7066 45.6776L36.1153 45.8273V46.0199C36.1164 46.4815 36.1187 47.7435 36.1311 49.5234Z" fill="#2F2E41"/>
<path d="M19.5232 35.5283C19.5232 35.5283 19.9392 34.7978 19.8425 32.3576C19.7458 29.9174 23.4616 31.2975 26.5666 31.0648C29.6716 30.832 29.0143 35.1387 29.0143 35.1387C29.0143 35.1387 29.2383 34.8827 29.7179 32.8042C30.1975 30.7256 29.1086 28.6542 29.1086 28.6542C28.7879 26.47 27.0595 27.17 27.0595 27.17C27.8918 27.4941 27.732 28.1869 27.732 28.1869C27.0274 26.9516 25.299 27.6517 25.299 27.6517C22.9939 26.2051 20.6576 28.11 20.6576 28.11C17.8728 28.7421 19.506 30.9567 19.506 30.9567C16.7054 32.3719 19.5232 35.5283 19.5232 35.5283Z" fill="#2F2E41"/>
<path d="M15.2144 49.5236H11.8403C11.8666 49.1079 11.8673 48.6909 11.8425 48.2751C11.641 47.4723 14.4758 46.3871 14.5614 46.3544C14.562 46.3538 14.5628 46.3534 14.5636 46.3533H14.5648L15.1052 46.6437L15.2144 49.5236Z" fill="#2F2E41"/>
<path d="M36.7402 49.5234H33.196L32.7536 45.1552L33.2501 44.7927C33.2501 44.7927 33.2951 44.8029 33.3751 44.8231H33.3773C33.7747 44.9211 35.0041 45.2453 35.7067 45.6776C35.8629 45.7653 36.0015 45.8814 36.1153 46.0199C36.185 46.1035 36.2197 46.2108 36.2121 46.3193C36.1941 46.4826 36.4013 47.685 36.7402 49.5234Z" fill="#2F2E41"/>
<path d="M125.453 48.9733H76.2549C76.1206 48.9732 75.9918 48.9198 75.8968 48.8248C75.8018 48.7298 75.7484 48.601 75.7483 48.4667V0.50662C75.7484 0.372302 75.8018 0.243529 75.8968 0.148552C75.9918 0.0535741 76.1206 0.000149372 76.2549 0H125.453C125.588 0.00014686 125.716 0.0535688 125.811 0.148547C125.906 0.243525 125.96 0.372301 125.96 0.50662V48.4667C125.96 48.601 125.906 48.7298 125.811 48.8248C125.716 48.9198 125.588 48.9732 125.453 48.9733Z" fill="#F0F0F0"/>
<path d="M120.106 4.39087H81.6026C81.4683 4.39107 81.3396 4.44451 81.2446 4.53948C81.1496 4.63444 81.0962 4.76319 81.096 4.89749V34.7318C81.0962 34.8661 81.1496 34.9949 81.2446 35.0898C81.3396 35.1848 81.4683 35.2382 81.6026 35.2384H120.106C120.24 35.2382 120.369 35.1848 120.464 35.0898C120.559 34.9949 120.612 34.8661 120.612 34.7318V4.89749C120.612 4.76319 120.559 4.63444 120.464 4.53948C120.369 4.44451 120.24 4.39107 120.106 4.39087Z" fill="white"/>
<path d="M117.91 41.0927H83.7979C83.7233 41.0926 83.6518 41.0629 83.599 41.0101C83.5462 40.9574 83.5165 40.8858 83.5164 40.8112V39.2351C83.5165 39.1604 83.5462 39.0889 83.599 39.0361C83.6518 38.9834 83.7233 38.9537 83.7979 38.9536H117.91C117.985 38.9537 118.057 38.9834 118.109 39.0361C118.162 39.0889 118.192 39.1604 118.192 39.2351V40.8112C118.192 40.8858 118.162 40.9574 118.109 41.0101C118.057 41.0629 117.985 41.0926 117.91 41.0927Z" fill="white"/>
<path d="M106.089 44.9203H83.7979C83.7233 44.9202 83.6518 44.8905 83.599 44.8378C83.5462 44.785 83.5165 44.7135 83.5164 44.6389V43.0627C83.5165 42.9881 83.5462 42.9165 83.599 42.8638C83.6518 42.811 83.7233 42.7813 83.7979 42.7812H106.089C106.164 42.7813 106.235 42.811 106.288 42.8638C106.341 42.9165 106.371 42.9881 106.371 43.0627V44.6389C106.371 44.7135 106.341 44.785 106.288 44.8378C106.235 44.8905 106.164 44.9202 106.089 44.9203Z" fill="white"/>
<path d="M110.331 35.2384C110.549 34.456 110.718 33.7816 110.804 33.3043C110.831 33.1571 110.834 33.0065 110.812 32.8584C110.488 30.5516 104.631 28.6017 103.88 28.3608L103.699 26.3523L96.3272 25.5586L95.3939 28.1277L92.7482 29.1196C92.6525 29.155 92.5614 29.2018 92.4769 29.2592C92.255 29.409 92.0843 29.6233 91.9879 29.8731C91.8915 30.1229 91.874 30.3962 91.9377 30.6563L93.0646 35.2384L110.331 35.2384Z" fill="#6C63FF"/>
<path d="M95.0494 35.2383H89.3291C89.534 33.9616 89.7175 32.8324 89.8369 32.1142C90.2737 29.5 92.1786 29.2771 92.4769 29.2591C92.5006 29.2568 92.5152 29.2568 92.5163 29.2568H93.7198L95.0494 35.2383Z" fill="#6C63FF"/>
<path d="M110.331 35.2383H111.718C111.596 34.1113 111.206 33.3525 110.812 32.8583C110.549 32.5108 110.21 32.2285 109.82 32.0331L109.716 31.988L108.496 35.2383H110.331Z" fill="#6C63FF"/>
<path d="M99.7252 24.2874C102.657 24.2874 105.033 21.911 105.033 18.9795C105.033 16.0481 102.657 13.6716 99.7252 13.6716C96.7937 13.6716 94.4173 16.0481 94.4173 18.9795C94.4173 21.911 96.7937 24.2874 99.7252 24.2874Z" fill="#A0616A"/>
<path d="M96.1625 16.3933C96.712 17.0436 97.6417 17.227 98.4995 17.3016C100.242 17.4544 102.775 17.2066 104.477 16.8136C104.599 17.9912 104.267 19.261 104.961 20.2298C105.286 19.057 105.475 17.8506 105.524 16.6345C105.545 16.113 105.537 15.5735 105.325 15.0947C105.113 14.6159 104.651 14.2095 104.119 14.2053C104.514 13.9054 104.977 13.7074 105.468 13.6289L103.782 12.782L104.215 12.3376L101.164 12.1509L102.048 11.5895C100.717 11.4068 99.3709 11.3645 98.0314 11.4633C97.4096 11.509 96.7595 11.5965 96.2557 11.9569C95.752 12.3172 95.4608 13.0331 95.7737 13.562C95.3821 13.6263 95.0135 13.7895 94.7026 14.0362C94.3918 14.2828 94.1491 14.6047 93.9975 14.9714C93.7729 15.5408 93.7935 16.1733 93.8627 16.7801C93.9776 17.7505 94.2031 18.7046 94.5348 19.6238" fill="#2F2E41"/>
<path d="M88.5153 79.1706H39.3168C39.1825 79.1705 39.0537 79.117 38.9588 79.022C38.8638 78.9271 38.8104 78.7983 38.8102 78.664V30.7039C38.8104 30.5696 38.8638 30.4408 38.9588 30.3458C39.0537 30.2508 39.1825 30.1974 39.3168 30.1973H88.5153C88.6497 30.1974 88.7784 30.2508 88.8734 30.3458C88.9684 30.4408 89.0218 30.5696 89.022 30.7039V78.664C89.0218 78.7983 88.9684 78.9271 88.8734 79.022C88.7784 79.117 88.6497 79.1705 88.5153 79.1706Z" fill="#E4E4E4"/>
<path d="M83.1677 34.5881H44.6645C44.5302 34.5883 44.4015 34.6418 44.3065 34.7367C44.2116 34.8317 44.1581 34.9605 44.1579 35.0948V64.9291C44.1581 65.0634 44.2116 65.1921 44.3065 65.2871C44.4015 65.3821 44.5302 65.4355 44.6645 65.4357H83.1677C83.302 65.4355 83.4308 65.3821 83.5257 65.2871C83.6207 65.1921 83.6741 65.0634 83.6743 64.9291V35.0948C83.6741 34.9605 83.6207 34.8317 83.5257 34.7367C83.4308 34.6418 83.302 34.5883 83.1677 34.5881Z" fill="white"/>
<path d="M80.9723 71.2899H46.8599C46.7852 71.2899 46.7137 71.2602 46.6609 71.2074C46.6082 71.1546 46.5785 71.0831 46.5784 71.0085V69.4323C46.5785 69.3577 46.6082 69.2862 46.6609 69.2334C46.7137 69.1806 46.7852 69.151 46.8599 69.1509H80.9723C81.0469 69.151 81.1185 69.1806 81.1712 69.2334C81.224 69.2862 81.2537 69.3577 81.2538 69.4323V71.0085C81.2537 71.0831 81.224 71.1546 81.1712 71.2074C81.1185 71.2602 81.0469 71.2899 80.9723 71.2899Z" fill="white"/>
<path d="M69.1512 75.1176H46.8599C46.7852 75.1175 46.7137 75.0878 46.6609 75.035C46.6082 74.9823 46.5785 74.9107 46.5784 74.8361V73.26C46.5785 73.1854 46.6082 73.1138 46.6609 73.061C46.7137 73.0083 46.7852 72.9786 46.8599 72.9785H69.1512C69.2258 72.9786 69.2973 73.0083 69.3501 73.061C69.4029 73.1138 69.4325 73.1854 69.4326 73.26V74.8361C69.4325 74.9107 69.4029 74.9823 69.3501 75.035C69.2973 75.0878 69.2258 75.1175 69.1512 75.1176Z" fill="white"/>
<path d="M67.7045 65.4357H59.9555L60.4384 58.1876L63.2339 58.8327L65.9527 57.7868L66.0248 57.7598L66.0293 57.7576C66.0303 57.7597 66.031 57.762 66.0316 57.7643C66.0743 57.9366 66.9277 61.3534 67.7045 65.4357Z" fill="#6C63FF"/>
<path d="M72.3745 59.3709L71.6505 65.4357H65.1197L65.9527 57.787L65.9606 57.7126L66.0249 57.7599L66.0315 57.7643L67.6426 58.9398L72.3745 59.3709Z" fill="#2F2E41"/>
<path d="M61.1016 65.4358H55.2529L55.1685 60.6612L59.4725 59.2336L60.4384 58.1877C60.4384 58.1877 60.7436 61.3344 61.1016 65.4358Z" fill="#2F2E41"/>
<path d="M75.1901 65.4357H70.3434L70.6542 61.0911L72.3744 59.3708C72.3744 59.3708 73.7356 62.2259 75.1901 65.4357Z" fill="#2F2E41"/>
<path d="M56.632 65.4357H54.0753C54.0866 64.0442 54.0933 63.0828 54.0933 62.8115C54.0805 62.392 54.172 61.976 54.3597 61.6007C54.5473 61.2254 54.8253 60.9025 55.1685 60.6611L56.4598 61.0912L56.632 65.4357Z" fill="#2F2E41"/>
<path d="M56.2332 50.7267C56.2371 49.5477 56.547 48.39 57.1326 47.3667C57.7181 46.3434 58.5593 45.4896 59.5738 44.8889C61.729 43.6166 64.3293 43.6397 66.7078 44.9519C68.4024 45.887 69.7811 48.2397 69.7811 50.1967V55.9067H56.2332V50.7267Z" fill="#2F2E41"/>
<path d="M65.086 55.1666C67.4574 53.8703 68.3289 50.897 67.0326 48.5257C65.7363 46.1543 62.7631 45.2828 60.3917 46.5791C58.0203 47.8754 57.1488 50.8486 58.4451 53.22C59.7414 55.5914 62.7147 56.4629 65.086 55.1666Z" fill="#FFB8B8"/>
<path d="M57.6359 50.9191C57.5988 50.8763 57.512 50.776 58.1156 46.1315L58.1348 46.0556H58.1893C61.2489 44.5505 64.353 44.5126 67.4161 45.9426C67.5104 45.9873 67.5914 46.0558 67.6513 46.1413C67.7112 46.2268 67.7479 46.3263 67.7577 46.4303C68.1152 50.7939 68.0288 50.889 67.9919 50.9297C67.9358 50.9912 67.8675 51.0404 67.7913 51.0741C67.7152 51.1078 67.6328 51.1252 67.5496 51.1253H66.1924L66.1639 51.074C65.9309 50.641 65.6752 50.2205 65.398 49.8144C65.2705 50.2187 65.1661 50.6299 65.0853 51.046L65.0688 51.1253H58.0876C58.0019 51.1253 57.9173 51.1069 57.8393 51.0713C57.7614 51.0357 57.692 50.9838 57.6359 50.9191Z" fill="#2F2E41"/>
</g>
<defs>
<clipPath id="clip0_13_183">
<rect width="125.96" height="79.1707" fill="white"/>
</clipPath>
</defs>
</svg>
