<svg xmlns="http://www.w3.org/2000/svg" xmlns:xlink="http://www.w3.org/1999/xlink" width="1080" zoomAndPan="magnify" viewBox="0 0 810 809.999993" height="1080" preserveAspectRatio="xMidYMid meet" version="1.0"><defs><g/><clipPath id="b9d84dbb85"><path d="M 186.3125 318.300781 L 615.230469 318.300781 L 615.230469 436.679688 L 186.3125 436.679688 Z M 186.3125 318.300781 " clip-rule="nonzero"/></clipPath><clipPath id="fa5a9b42ca"><path d="M 400.773438 318.300781 L 619.023438 318.300781 L 619.023438 436.679688 L 400.773438 436.679688 Z M 400.773438 318.300781 " clip-rule="nonzero"/></clipPath></defs><rect x="-81" width="972" fill="#ffffff" y="-80.999999" height="971.999992" fill-opacity="1"/><rect x="-81" width="972" fill="#ffffff" y="-80.999999" height="971.999992" fill-opacity="1"/><rect x="-81" width="972" fill="#ffffff" y="-80.999999" height="971.999992" fill-opacity="1"/><g clip-path="url(#b9d84dbb85)"><path fill="#0051ba" d="M 186.3125 318.300781 L 615.269531 318.300781 L 615.269531 436.695312 L 186.3125 436.695312 Z M 186.3125 318.300781 " fill-opacity="1" fill-rule="nonzero"/></g><g clip-path="url(#fa5a9b42ca)"><path fill="#ffda1a" d="M 400.773438 318.300781 L 619.054688 318.300781 L 619.054688 436.695312 L 400.773438 436.695312 Z M 400.773438 318.300781 " fill-opacity="1" fill-rule="nonzero"/></g><g fill="#ffffff" fill-opacity="1"><g transform="translate(200.540235, 410.30401)"><g><path d="M 17.984375 -24 L 17.984375 0 L 4.34375 0 L 4.34375 -59.8125 L 17.984375 -59.8125 L 17.984375 -35.953125 L 37.265625 -35.953125 L 37.265625 -59.8125 L 50.890625 -59.8125 L 50.890625 0 L 37.265625 0 L 37.265625 -24 Z M 17.984375 -24 "/></g></g></g><g fill="#ffffff" fill-opacity="1"><g transform="translate(255.749865, 410.30401)"><g><path d="M 1.671875 -29.9375 C 1.671875 -38.59375 4.617188 -45.914062 10.515625 -51.90625 C 16.410156 -57.90625 23.515625 -60.90625 31.828125 -60.90625 C 40.191406 -60.90625 47.296875 -57.921875 53.140625 -51.953125 C 58.992188 -45.984375 61.921875 -38.644531 61.921875 -29.9375 C 61.921875 -21.1875 59.039062 -13.828125 53.28125 -7.859375 C 47.53125 -1.890625 40.378906 1.09375 31.828125 1.09375 C 23.078125 1.09375 15.863281 -1.863281 10.1875 -7.78125 C 4.507812 -13.707031 1.671875 -21.09375 1.671875 -29.9375 Z M 16.390625 -29.9375 C 16.390625 -26.800781 16.867188 -23.9375 17.828125 -21.34375 C 18.796875 -18.757812 20.488281 -16.570312 22.90625 -14.78125 C 25.320312 -13 28.296875 -12.109375 31.828125 -12.109375 C 36.898438 -12.109375 40.726562 -13.847656 43.3125 -17.328125 C 45.90625 -20.804688 47.203125 -25.007812 47.203125 -29.9375 C 47.203125 -34.820312 45.882812 -39.015625 43.25 -42.515625 C 40.613281 -46.023438 36.804688 -47.78125 31.828125 -47.78125 C 26.898438 -47.78125 23.09375 -46.023438 20.40625 -42.515625 C 17.726562 -39.015625 16.390625 -34.820312 16.390625 -29.9375 Z M 16.390625 -29.9375 "/></g></g></g><g fill="#ffffff" fill-opacity="1"><g transform="translate(319.291672, 410.30401)"><g><path d="M 53.796875 0 L 50.96875 -35.453125 L 50.609375 -35.453125 L 38.359375 -0.359375 L 30.234375 -0.359375 L 17.984375 -35.453125 L 17.625 -35.453125 L 14.796875 0 L 1.15625 0 L 6.53125 -59.8125 L 21.03125 -59.8125 L 34.296875 -25.296875 L 47.5625 -59.8125 L 62.0625 -59.8125 L 67.421875 0 Z M 53.796875 0 "/></g></g></g><g fill="#0051ba" fill-opacity="1"><g transform="translate(417.161243, 410.30401)"><g><path d="M 1.671875 -29.9375 C 1.671875 -38.59375 4.617188 -45.914062 10.515625 -51.90625 C 16.410156 -57.90625 23.515625 -60.90625 31.828125 -60.90625 C 40.191406 -60.90625 47.296875 -57.921875 53.140625 -51.953125 C 58.992188 -45.984375 61.921875 -38.644531 61.921875 -29.9375 C 61.921875 -21.1875 59.039062 -13.828125 53.28125 -7.859375 C 47.53125 -1.890625 40.378906 1.09375 31.828125 1.09375 C 23.078125 1.09375 15.863281 -1.863281 10.1875 -7.78125 C 4.507812 -13.707031 1.671875 -21.09375 1.671875 -29.9375 Z M 16.390625 -29.9375 C 16.390625 -26.800781 16.867188 -23.9375 17.828125 -21.34375 C 18.796875 -18.757812 20.488281 -16.570312 22.90625 -14.78125 C 25.320312 -13 28.296875 -12.109375 31.828125 -12.109375 C 36.898438 -12.109375 40.726562 -13.847656 43.3125 -17.328125 C 45.90625 -20.804688 47.203125 -25.007812 47.203125 -29.9375 C 47.203125 -34.820312 45.882812 -39.015625 43.25 -42.515625 C 40.613281 -46.023438 36.804688 -47.78125 31.828125 -47.78125 C 26.898438 -47.78125 23.09375 -46.023438 20.40625 -42.515625 C 17.726562 -39.015625 16.390625 -34.820312 16.390625 -29.9375 Z M 16.390625 -29.9375 "/></g></g></g><g fill="#0051ba" fill-opacity="1"><g transform="translate(480.70305, 410.30401)"><g><path d="M 38.9375 -59.8125 L 38.9375 -47.84375 L 17.984375 -47.84375 L 17.984375 -35.953125 L 37.34375 -35.953125 L 37.34375 -24 L 17.984375 -24 L 17.984375 0 L 4.34375 0 L 4.34375 -59.8125 Z M 38.9375 -59.8125 "/></g></g></g><g fill="#0051ba" fill-opacity="1"><g transform="translate(521.78424, 410.30401)"><g><path d="M 17.984375 -59.8125 L 17.984375 0 L 4.34375 0 L 4.34375 -59.8125 Z M 17.984375 -59.8125 "/></g></g></g><g fill="#0051ba" fill-opacity="1"><g transform="translate(544.099959, 410.30401)"><g><path d="M 60.3125 0 L 42.703125 0 L 28.5625 -20.375 L 14.421875 0 L -2.46875 0 L 20.15625 -32.1875 L 1.3125 -59.8125 L 17.546875 -59.8125 L 28.5625 -43.5 L 39.578125 -59.8125 L 56.546875 -59.8125 L 36.96875 -32.1875 Z M 60.3125 0 "/></g></g></g><g fill="#0051ba" fill-opacity="1"><g transform="translate(265.804487, 481.509144)"><g><path d="M 15.546875 -5.296875 C 16.429688 -5.296875 17.296875 -5.429688 18.140625 -5.703125 C 18.984375 -5.972656 19.601562 -6.234375 20 -6.484375 L 20.578125 -6.875 L 23.078125 -1.90625 C 22.992188 -1.84375 22.878906 -1.757812 22.734375 -1.65625 C 22.585938 -1.550781 22.25 -1.359375 21.71875 -1.078125 C 21.1875 -0.796875 20.617188 -0.550781 20.015625 -0.34375 C 19.421875 -0.132812 18.632812 0.0507812 17.65625 0.21875 C 16.675781 0.382812 15.671875 0.46875 14.640625 0.46875 C 12.253906 0.46875 9.988281 -0.113281 7.84375 -1.28125 C 5.707031 -2.457031 3.984375 -4.070312 2.671875 -6.125 C 1.367188 -8.1875 0.71875 -10.410156 0.71875 -12.796875 C 0.71875 -14.609375 1.097656 -16.34375 1.859375 -18 C 2.628906 -19.65625 3.648438 -21.078125 4.921875 -22.265625 C 6.203125 -23.453125 7.691406 -24.394531 9.390625 -25.09375 C 11.097656 -25.800781 12.847656 -26.15625 14.640625 -26.15625 C 16.296875 -26.15625 17.820312 -25.957031 19.21875 -25.5625 C 20.625 -25.164062 21.617188 -24.773438 22.203125 -24.390625 L 23.078125 -23.796875 L 20.578125 -18.8125 C 20.429688 -18.9375 20.210938 -19.085938 19.921875 -19.265625 C 19.640625 -19.441406 19.0625 -19.671875 18.1875 -19.953125 C 17.3125 -20.242188 16.429688 -20.390625 15.546875 -20.390625 C 14.128906 -20.390625 12.859375 -20.160156 11.734375 -19.703125 C 10.617188 -19.253906 9.734375 -18.65625 9.078125 -17.90625 C 8.421875 -17.15625 7.921875 -16.347656 7.578125 -15.484375 C 7.234375 -14.628906 7.0625 -13.753906 7.0625 -12.859375 C 7.0625 -10.910156 7.789062 -9.160156 9.25 -7.609375 C 10.71875 -6.066406 12.816406 -5.296875 15.546875 -5.296875 Z M 15.546875 -5.296875 "/></g></g></g><g fill="#0051ba" fill-opacity="1"><g transform="translate(306.650889, 481.509144)"><g><path d="M 0.71875 -12.859375 C 0.71875 -16.578125 1.984375 -19.722656 4.515625 -22.296875 C 7.046875 -24.867188 10.097656 -26.15625 13.671875 -26.15625 C 17.265625 -26.15625 20.316406 -24.875 22.828125 -22.3125 C 25.335938 -19.75 26.59375 -16.597656 26.59375 -12.859375 C 26.59375 -9.097656 25.359375 -5.9375 22.890625 -3.375 C 20.421875 -0.8125 17.347656 0.46875 13.671875 0.46875 C 9.910156 0.46875 6.8125 -0.800781 4.375 -3.34375 C 1.9375 -5.882812 0.71875 -9.054688 0.71875 -12.859375 Z M 7.03125 -12.859375 C 7.03125 -11.515625 7.238281 -10.285156 7.65625 -9.171875 C 8.070312 -8.054688 8.796875 -7.113281 9.828125 -6.34375 C 10.867188 -5.582031 12.148438 -5.203125 13.671875 -5.203125 C 15.847656 -5.203125 17.488281 -5.945312 18.59375 -7.4375 C 19.707031 -8.9375 20.265625 -10.742188 20.265625 -12.859375 C 20.265625 -14.953125 19.695312 -16.75 18.5625 -18.25 C 17.4375 -19.757812 15.804688 -20.515625 13.671875 -20.515625 C 11.554688 -20.515625 9.921875 -19.757812 8.765625 -18.25 C 7.609375 -16.75 7.03125 -14.953125 7.03125 -12.859375 Z M 7.03125 -12.859375 "/></g></g></g><g fill="#0051ba" fill-opacity="1"><g transform="translate(351.357703, 481.509144)"><g><path d="M 23.109375 0 L 21.890625 -15.234375 L 21.734375 -15.234375 L 16.46875 -0.15625 L 12.984375 -0.15625 L 7.71875 -15.234375 L 7.5625 -15.234375 L 6.359375 0 L 0.5 0 L 2.796875 -25.6875 L 9.03125 -25.6875 L 14.734375 -10.875 L 20.421875 -25.6875 L 26.65625 -25.6875 L 28.953125 0 Z M 23.109375 0 "/></g></g></g><g fill="#0051ba" fill-opacity="1"><g transform="translate(398.21266, 481.509144)"><g><path d="M 1.875 -25.6875 L 11.234375 -25.6875 C 13.859375 -25.6875 15.976562 -25.007812 17.59375 -23.65625 C 19.207031 -22.3125 20.015625 -20.351562 20.015625 -17.78125 C 20.015625 -15.207031 19.195312 -13.1875 17.5625 -11.71875 C 15.925781 -10.257812 13.816406 -9.53125 11.234375 -9.53125 L 7.71875 -9.53125 L 7.71875 0 L 1.875 0 Z M 7.71875 -14.203125 L 9.375 -14.203125 C 10.675781 -14.203125 11.75 -14.460938 12.59375 -14.984375 C 13.4375 -15.515625 13.859375 -16.382812 13.859375 -17.59375 C 13.859375 -18.820312 13.4375 -19.695312 12.59375 -20.21875 C 11.75 -20.75 10.675781 -21.015625 9.375 -21.015625 L 7.71875 -21.015625 Z M 7.71875 -14.203125 "/></g></g></g><g fill="#0051ba" fill-opacity="1"><g transform="translate(436.35054, 481.509144)"><g><path d="M 14.921875 -25.6875 L 25.28125 0 L 19 0 L 17.09375 -5.140625 L 7.3125 -5.140625 L 5.421875 0 L -0.875 0 L 9.5 -25.6875 Z M 15.109375 -10.28125 L 12.234375 -17.75 L 12.171875 -17.75 L 9.3125 -10.28125 Z M 15.109375 -10.28125 "/></g></g></g><g fill="#0051ba" fill-opacity="1"><g transform="translate(478.162043, 481.509144)"><g><path d="M 7.71875 -15.9375 L 7.71875 0 L 1.875 0 L 1.875 -25.6875 L 7.71875 -25.6875 L 17.9375 -9.75 L 18 -9.75 L 18 -25.6875 L 23.859375 -25.6875 L 23.859375 0 L 18 0 L 7.78125 -15.9375 Z M 7.71875 -15.9375 "/></g></g></g><g fill="#0051ba" fill-opacity="1"><g transform="translate(521.281116, 481.509144)"><g><path d="M -0.9375 -25.6875 L 6.109375 -25.6875 L 11.453125 -17.46875 L 16.8125 -25.6875 L 23.859375 -25.6875 L 14.390625 -11.515625 L 14.390625 0 L 8.53125 0 L 8.53125 -11.515625 Z M -0.9375 -25.6875 "/></g></g></g></svg>