<svg xmlns="http://www.w3.org/2000/svg" xmlns:xlink="http://www.w3.org/1999/xlink" width="672" zoomAndPan="magnify" viewBox="0 0 504 241.499998" height="322" preserveAspectRatio="xMidYMid meet" version="1.0"><defs><g/><clipPath id="2484adeb8e"><path d="M 0.519531 0 L 503.476562 0 L 503.476562 241 L 0.519531 241 Z M 0.519531 0 " clip-rule="nonzero"/></clipPath><clipPath id="592eb6df25"><path d="M 43.40625 37.542969 L 452.675781 37.542969 L 452.675781 150.5 L 43.40625 150.5 Z M 43.40625 37.542969 " clip-rule="nonzero"/></clipPath><clipPath id="12fbecf048"><path d="M 248.042969 37.542969 L 456.292969 37.542969 L 456.292969 150.5 L 248.042969 150.5 Z M 248.042969 37.542969 " clip-rule="nonzero"/></clipPath></defs><g clip-path="url(#2484adeb8e)"><path fill="#ffffff" d="M 0.519531 0 L 503.480469 0 L 503.480469 248.484375 L 0.519531 248.484375 Z M 0.519531 0 " fill-opacity="1" fill-rule="nonzero"/><path fill="#ffffff" d="M 0.519531 0 L 503.480469 0 L 503.480469 241 L 0.519531 241 Z M 0.519531 0 " fill-opacity="1" fill-rule="nonzero"/></g><g clip-path="url(#592eb6df25)"><path fill="#0051ba" d="M 43.40625 37.542969 L 452.710938 37.542969 L 452.710938 150.515625 L 43.40625 150.515625 Z M 43.40625 37.542969 " fill-opacity="1" fill-rule="nonzero"/></g><g clip-path="url(#12fbecf048)"><path fill="#ffda1a" d="M 248.042969 37.542969 L 456.324219 37.542969 L 456.324219 150.515625 L 248.042969 150.515625 Z M 248.042969 37.542969 " fill-opacity="1" fill-rule="nonzero"/></g><g fill="#ffffff" fill-opacity="1"><g transform="translate(56.983835, 125.332426)"><g><path d="M 17.15625 -22.890625 L 17.15625 0 L 4.15625 0 L 4.15625 -57.0625 L 17.15625 -57.0625 L 17.15625 -34.3125 L 35.546875 -34.3125 L 35.546875 -57.0625 L 48.5625 -57.0625 L 48.5625 0 L 35.546875 0 L 35.546875 -22.890625 Z M 17.15625 -22.890625 "/></g></g></g><g fill="#ffffff" fill-opacity="1"><g transform="translate(109.664095, 125.332426)"><g><path d="M 1.59375 -28.5625 C 1.59375 -36.820312 4.40625 -43.8125 10.03125 -49.53125 C 15.65625 -55.25 22.429688 -58.109375 30.359375 -58.109375 C 38.335938 -58.109375 45.117188 -55.257812 50.703125 -49.5625 C 56.285156 -43.863281 59.078125 -36.863281 59.078125 -28.5625 C 59.078125 -20.21875 56.332031 -13.195312 50.84375 -7.5 C 45.351562 -1.8125 38.523438 1.03125 30.359375 1.03125 C 22.015625 1.03125 15.132812 -1.789062 9.71875 -7.4375 C 4.300781 -13.082031 1.59375 -20.125 1.59375 -28.5625 Z M 15.640625 -28.5625 C 15.640625 -25.570312 16.097656 -22.84375 17.015625 -20.375 C 17.941406 -17.90625 19.554688 -15.816406 21.859375 -14.109375 C 24.160156 -12.398438 26.992188 -11.546875 30.359375 -11.546875 C 35.203125 -11.546875 38.859375 -13.207031 41.328125 -16.53125 C 43.796875 -19.851562 45.03125 -23.863281 45.03125 -28.5625 C 45.03125 -33.21875 43.769531 -37.21875 41.25 -40.5625 C 38.738281 -43.90625 35.109375 -45.578125 30.359375 -45.578125 C 25.660156 -45.578125 22.03125 -43.90625 19.46875 -40.5625 C 16.914062 -37.21875 15.640625 -33.21875 15.640625 -28.5625 Z M 15.640625 -28.5625 "/></g></g></g><g fill="#ffffff" fill-opacity="1"><g transform="translate(170.294803, 125.332426)"><g><path d="M 51.328125 0 L 48.625 -33.828125 L 48.28125 -33.828125 L 36.59375 -0.34375 L 28.84375 -0.34375 L 17.15625 -33.828125 L 16.8125 -33.828125 L 14.109375 0 L 1.109375 0 L 6.21875 -57.0625 L 20.0625 -57.0625 L 32.71875 -24.140625 L 45.375 -57.0625 L 59.21875 -57.0625 L 64.328125 0 Z M 51.328125 0 "/></g></g></g><g fill="#0051ba" fill-opacity="1"><g transform="translate(263.680575, 125.332426)"><g><path d="M 1.59375 -28.5625 C 1.59375 -36.820312 4.40625 -43.8125 10.03125 -49.53125 C 15.65625 -55.25 22.429688 -58.109375 30.359375 -58.109375 C 38.335938 -58.109375 45.117188 -55.257812 50.703125 -49.5625 C 56.285156 -43.863281 59.078125 -36.863281 59.078125 -28.5625 C 59.078125 -20.21875 56.332031 -13.195312 50.84375 -7.5 C 45.351562 -1.8125 38.523438 1.03125 30.359375 1.03125 C 22.015625 1.03125 15.132812 -1.789062 9.71875 -7.4375 C 4.300781 -13.082031 1.59375 -20.125 1.59375 -28.5625 Z M 15.640625 -28.5625 C 15.640625 -25.570312 16.097656 -22.84375 17.015625 -20.375 C 17.941406 -17.90625 19.554688 -15.816406 21.859375 -14.109375 C 24.160156 -12.398438 26.992188 -11.546875 30.359375 -11.546875 C 35.203125 -11.546875 38.859375 -13.207031 41.328125 -16.53125 C 43.796875 -19.851562 45.03125 -23.863281 45.03125 -28.5625 C 45.03125 -33.21875 43.769531 -37.21875 41.25 -40.5625 C 38.738281 -43.90625 35.109375 -45.578125 30.359375 -45.578125 C 25.660156 -45.578125 22.03125 -43.90625 19.46875 -40.5625 C 16.914062 -37.21875 15.640625 -33.21875 15.640625 -28.5625 Z M 15.640625 -28.5625 "/></g></g></g><g fill="#0051ba" fill-opacity="1"><g transform="translate(324.311283, 125.332426)"><g><path d="M 37.140625 -57.0625 L 37.140625 -45.65625 L 17.15625 -45.65625 L 17.15625 -34.3125 L 35.625 -34.3125 L 35.625 -22.890625 L 17.15625 -22.890625 L 17.15625 0 L 4.15625 0 L 4.15625 -57.0625 Z M 37.140625 -57.0625 "/></g></g></g><g fill="#0051ba" fill-opacity="1"><g transform="translate(363.510383, 125.332426)"><g><path d="M 17.15625 -57.0625 L 17.15625 0 L 4.15625 0 L 4.15625 -57.0625 Z M 17.15625 -57.0625 "/></g></g></g><g fill="#0051ba" fill-opacity="1"><g transform="translate(384.803731, 125.332426)"><g><path d="M 57.546875 0 L 40.75 0 L 27.25 -19.4375 L 13.765625 0 L -2.359375 0 L 19.234375 -30.71875 L 1.25 -57.0625 L 16.734375 -57.0625 L 27.25 -41.5 L 37.765625 -57.0625 L 53.953125 -57.0625 L 35.28125 -30.71875 Z M 57.546875 0 "/></g></g></g><g fill="#ffffff" fill-opacity="1"><g transform="translate(119.258073, 193.275393)"><g><path d="M 14.828125 -5.046875 C 15.671875 -5.046875 16.492188 -5.175781 17.296875 -5.4375 C 18.097656 -5.695312 18.6875 -5.941406 19.0625 -6.171875 L 19.640625 -6.5625 L 22.015625 -1.8125 C 21.929688 -1.75 21.816406 -1.664062 21.671875 -1.5625 C 21.535156 -1.46875 21.210938 -1.285156 20.703125 -1.015625 C 20.203125 -0.753906 19.664062 -0.523438 19.09375 -0.328125 C 18.519531 -0.128906 17.769531 0.046875 16.84375 0.203125 C 15.914062 0.367188 14.953125 0.453125 13.953125 0.453125 C 11.679688 0.453125 9.523438 -0.101562 7.484375 -1.21875 C 5.441406 -2.34375 3.796875 -3.882812 2.546875 -5.84375 C 1.304688 -7.8125 0.6875 -9.929688 0.6875 -12.203125 C 0.6875 -13.929688 1.050781 -15.585938 1.78125 -17.171875 C 2.507812 -18.753906 3.484375 -20.109375 4.703125 -21.234375 C 5.921875 -22.367188 7.34375 -23.269531 8.96875 -23.9375 C 10.59375 -24.613281 12.253906 -24.953125 13.953125 -24.953125 C 15.546875 -24.953125 17.007812 -24.765625 18.34375 -24.390625 C 19.675781 -24.015625 20.617188 -23.632812 21.171875 -23.25 L 22.015625 -22.6875 L 19.640625 -17.9375 C 19.492188 -18.0625 19.28125 -18.207031 19 -18.375 C 18.726562 -18.539062 18.175781 -18.757812 17.34375 -19.03125 C 16.507812 -19.3125 15.671875 -19.453125 14.828125 -19.453125 C 13.472656 -19.453125 12.257812 -19.234375 11.1875 -18.796875 C 10.125 -18.367188 9.28125 -17.796875 8.65625 -17.078125 C 8.03125 -16.367188 7.554688 -15.601562 7.234375 -14.78125 C 6.910156 -13.957031 6.75 -13.117188 6.75 -12.265625 C 6.75 -10.398438 7.445312 -8.726562 8.84375 -7.25 C 10.238281 -5.78125 12.234375 -5.046875 14.828125 -5.046875 Z M 14.828125 -5.046875 "/></g></g></g><g fill="#ffffff" fill-opacity="1"><g transform="translate(158.233141, 193.275393)"><g><path d="M 0.6875 -12.265625 C 0.6875 -15.804688 1.894531 -18.804688 4.3125 -21.265625 C 6.726562 -23.722656 9.640625 -24.953125 13.046875 -24.953125 C 16.460938 -24.953125 19.367188 -23.726562 21.765625 -21.28125 C 24.160156 -18.832031 25.359375 -15.828125 25.359375 -12.265625 C 25.359375 -8.679688 24.179688 -5.664062 21.828125 -3.21875 C 19.472656 -0.769531 16.546875 0.453125 13.046875 0.453125 C 9.453125 0.453125 6.492188 -0.757812 4.171875 -3.1875 C 1.847656 -5.613281 0.6875 -8.640625 0.6875 -12.265625 Z M 6.71875 -12.265625 C 6.71875 -10.984375 6.914062 -9.8125 7.3125 -8.75 C 7.707031 -7.6875 8.398438 -6.785156 9.390625 -6.046875 C 10.378906 -5.316406 11.597656 -4.953125 13.046875 -4.953125 C 15.117188 -4.953125 16.6875 -5.664062 17.75 -7.09375 C 18.8125 -8.519531 19.34375 -10.242188 19.34375 -12.265625 C 19.34375 -14.265625 18.800781 -15.984375 17.71875 -17.421875 C 16.632812 -18.859375 15.078125 -19.578125 13.046875 -19.578125 C 11.023438 -19.578125 9.460938 -18.859375 8.359375 -17.421875 C 7.265625 -15.984375 6.71875 -14.265625 6.71875 -12.265625 Z M 6.71875 -12.265625 "/></g></g></g><g fill="#ffffff" fill-opacity="1"><g transform="translate(200.89176, 193.275393)"><g><path d="M 22.046875 0 L 20.875 -14.53125 L 20.734375 -14.53125 L 15.71875 -0.15625 L 12.390625 -0.15625 L 7.359375 -14.53125 L 7.21875 -14.53125 L 6.0625 0 L 0.46875 0 L 2.671875 -24.5 L 8.609375 -24.5 L 14.046875 -10.359375 L 19.484375 -24.5 L 25.421875 -24.5 L 27.625 0 Z M 22.046875 0 "/></g></g></g><g fill="#ffffff" fill-opacity="1"><g transform="translate(245.600108, 193.275393)"><g><path d="M 1.78125 -24.5 L 10.71875 -24.5 C 13.21875 -24.5 15.238281 -23.851562 16.78125 -22.5625 C 18.320312 -21.28125 19.09375 -19.410156 19.09375 -16.953125 C 19.09375 -14.503906 18.3125 -12.582031 16.75 -11.1875 C 15.1875 -9.789062 13.175781 -9.09375 10.71875 -9.09375 L 7.359375 -9.09375 L 7.359375 0 L 1.78125 0 Z M 7.359375 -13.546875 L 8.9375 -13.546875 C 10.1875 -13.546875 11.210938 -13.796875 12.015625 -14.296875 C 12.816406 -14.804688 13.21875 -15.632812 13.21875 -16.78125 C 13.21875 -17.945312 12.816406 -18.78125 12.015625 -19.28125 C 11.210938 -19.789062 10.1875 -20.046875 8.9375 -20.046875 L 7.359375 -20.046875 Z M 7.359375 -13.546875 "/></g></g></g><g fill="#ffffff" fill-opacity="1"><g transform="translate(281.990742, 193.275393)"><g><path d="M 14.234375 -24.5 L 24.125 0 L 18.125 0 L 16.3125 -4.90625 L 6.984375 -4.90625 L 5.171875 0 L -0.828125 0 L 9.0625 -24.5 Z M 14.40625 -9.796875 L 11.671875 -16.9375 L 11.609375 -16.9375 L 8.875 -9.796875 Z M 14.40625 -9.796875 "/></g></g></g><g fill="#ffffff" fill-opacity="1"><g transform="translate(321.886695, 193.275393)"><g><path d="M 7.359375 -15.203125 L 7.359375 0 L 1.78125 0 L 1.78125 -24.5 L 7.359375 -24.5 L 17.109375 -9.296875 L 17.171875 -9.296875 L 17.171875 -24.5 L 22.75 -24.5 L 22.75 0 L 17.171875 0 L 7.421875 -15.203125 Z M 7.359375 -15.203125 "/></g></g></g><g fill="#ffffff" fill-opacity="1"><g transform="translate(363.030315, 193.275393)"><g><path d="M -0.890625 -24.5 L 5.828125 -24.5 L 10.9375 -16.65625 L 16.046875 -24.5 L 22.75 -24.5 L 13.71875 -10.984375 L 13.71875 0 L 8.140625 0 L 8.140625 -10.984375 Z M -0.890625 -24.5 "/></g></g></g></svg>